<svg width="214" height="218" viewBox="0 0 214 218" fill="none" xmlns="http://www.w3.org/2000/svg">
<ellipse cx="107" cy="109.135" rx="106.173" ry="108.318" fill="white"/>
<path d="M153.14 170.6L117.747 133.376L131.322 119.098L166.715 156.323L153.14 170.6ZM63.9309 170.6L50.3556 156.323L94.96 109.41L83.9705 97.8516L79.4454 102.611L71.2033 93.9422V107.88L66.6783 112.639L47.1234 92.0724L51.6485 87.3132H64.9005L56.82 78.8145L79.7687 54.6782C81.9235 52.4119 84.2399 50.7688 86.7179 49.7489C89.1959 48.7291 91.7278 48.2192 94.3136 48.2192C96.8993 48.2192 99.4312 48.7291 101.909 49.7489C104.387 50.7688 106.704 52.4119 108.858 54.6782L93.9903 70.3158L102.071 78.8145L97.5458 83.5738L108.535 95.132L123.08 79.8343C122.649 78.5879 122.3 77.2847 122.033 75.9249C121.766 74.5651 121.63 73.2053 121.626 71.8456C121.626 65.1599 123.808 59.5213 128.174 54.9297C132.54 50.3382 137.899 48.0447 144.251 48.0492C145.867 48.0492 147.404 48.2192 148.86 48.5591C150.317 48.8991 151.797 49.409 153.301 50.0889L137.302 66.9163L148.938 79.1544L164.937 62.327C165.691 63.9134 166.204 65.4704 166.476 66.9979C166.747 68.5254 166.881 70.1413 166.876 71.8456C166.876 78.5312 164.696 84.1698 160.334 88.7614C155.973 93.3529 150.612 95.6464 144.251 95.6419C142.958 95.6419 141.665 95.5286 140.372 95.302C139.08 95.0753 137.841 94.6787 136.655 94.1121L63.9309 170.6Z" fill="#00A359"/>
</svg>
