<svg width="214" height="217" viewBox="0 0 214 217" fill="none" xmlns="http://www.w3.org/2000/svg">
<ellipse cx="107" cy="108.627" rx="106.173" ry="108.318" fill="white"/>
<path d="M107 135.477C73.85 135.477 47 148.902 47 165.477V180.477H167V165.477C167 148.902 140.15 135.477 107 135.477ZM77 90.4766C77 98.4331 80.1607 106.064 85.7868 111.69C91.4129 117.316 99.0435 120.477 107 120.477C114.956 120.477 122.587 117.316 128.213 111.69C133.839 106.064 137 98.4331 137 90.4766M103.25 37.9766C101 37.9766 99.5 39.5516 99.5 41.7266V64.2266H92V45.4766C92 45.4766 75.125 51.9266 75.125 73.6016C75.125 73.6016 69.5 74.6516 69.5 82.9766H144.5C144.125 74.6516 138.875 73.6016 138.875 73.6016C138.875 51.9266 122 45.4766 122 45.4766V64.2266H114.5V41.7266C114.5 39.5516 113.075 37.9766 110.75 37.9766H103.25Z" fill="#00A359"/>
</svg>
